<svg xmlns="http://www.w3.org/2000/svg" viewBox="0 0 1024 1559" font-family="'PingFang SC','Microsoft YaHei','Helvetica Neue',Arial,sans-serif">
  <defs>
    <linearGradient id="bgGrad" x1="0%" y1="0%" x2="100%" y2="100%">
      <stop offset="0%" stop-color="#cdd6f6"/>
      <stop offset="50%" stop-color="#e7d3f0"/>
      <stop offset="100%" stop-color="#cfe9f2"/>
    </linearGradient>
    <linearGradient id="phoneGrad" x1="0%" y1="0%" x2="100%" y2="100%">
      <stop offset="0%" stop-color="#d7c9f0"/>
      <stop offset="50%" stop-color="#e3cfe6"/>
      <stop offset="100%" stop-color="#c9e3ef"/>
    </linearGradient>
    <radialGradient id="bubbleGrad" cx="35%" cy="30%" r="70%">
      <stop offset="0%" stop-color="#ffffff" stop-opacity="0.95"/>
      <stop offset="35%" stop-color="#e9c9ec" stop-opacity="0.55"/>
      <stop offset="70%" stop-color="#bcd9ee" stop-opacity="0.45"/>
      <stop offset="100%" stop-color="#a9c8e8" stop-opacity="0.35"/>
    </radialGradient>
    <linearGradient id="plusGrad" x1="0%" y1="0%" x2="100%" y2="100%">
      <stop offset="0%" stop-color="#f6a6c1"/>
      <stop offset="100%" stop-color="#e893c8"/>
    </linearGradient>
    <linearGradient id="btnGrad" x1="0%" y1="0%" x2="100%" y2="0%">
      <stop offset="0%" stop-color="#a695e8"/>
      <stop offset="100%" stop-color="#f0a6cf"/>
    </linearGradient>
    <linearGradient id="cardGrad" x1="0%" y1="0%" x2="100%" y2="100%">
      <stop offset="0%" stop-color="#e6d9f3" stop-opacity="0.9"/>
      <stop offset="100%" stop-color="#cfe6ef" stop-opacity="0.9"/>
    </linearGradient>
    <filter id="softShadow" x="-20%" y="-20%" width="140%" height="140%">
      <feDropShadow dx="0" dy="6" stdDeviation="10" flood-color="#7a6aa8" flood-opacity="0.18"/>
    </filter>
  </defs>

  <!-- BACKGROUND -->
  <rect x="0" y="0" width="1024" height="1559" fill="url(#bgGrad)"/>

  <!-- ============ PHONE MOCKUP (top-left) ============ -->
  <g filter="url(#softShadow)">
    <rect x="38" y="22" width="380" height="908" rx="36" fill="url(#phoneGrad)"/>
  </g>
  <!-- status bar -->
  <text x="64" y="68" font-size="17" fill="#3a3550" font-weight="600">9:41</text>
  <g transform="translate(330,52)" fill="#3a3550">
    <rect x="0" y="8" width="3" height="8" rx="1"/>
    <rect x="5" y="5" width="3" height="11" rx="1"/>
    <rect x="10" y="2" width="3" height="14" rx="1"/>
    <path d="M22 16 a10 10 0 0 1 16 0" stroke="#3a3550" stroke-width="2" fill="none"/>
    <rect x="46" y="3" width="22" height="12" rx="3" fill="none" stroke="#3a3550" stroke-width="1.5"/>
    <rect x="48" y="5" width="16" height="8" rx="1.5" fill="#3a3550"/>
  </g>

  <text x="64" y="135" font-size="20" fill="#5c5470">Hi, Luna</text>
  <circle cx="378" cy="125" r="16" fill="#ffffffaa"/>
  <rect x="370" y="117" width="16" height="14" rx="2" fill="none" stroke="#5c5470" stroke-width="1.4"/>
  <line x1="370" y1="121" x2="386" y2="121" stroke="#5c5470" stroke-width="1.2"/>

  <text x="64" y="172" font-size="26" font-weight="700" fill="#3a3550">了解周期，</text>
  <text x="64" y="206" font-size="26" font-weight="700" fill="#3a3550">更好地照顾自己</text>

  <!-- big bubble -->
  <circle cx="228" cy="335" r="118" fill="url(#bubbleGrad)" stroke="#ffffff66" stroke-width="2"/>
  <circle cx="190" cy="290" r="14" fill="#ffffff88"/>
  <ellipse cx="358" cy="270" rx="18" ry="18" fill="#ffffff66"/>
  <ellipse cx="358" cy="475" rx="13" ry="13" fill="#ffffff55"/>
  <path d="M40 290 Q150 250 200 360 Q230 430 370 410" stroke="#ffffffaa" stroke-width="6" fill="none" stroke-linecap="round" opacity="0.6"/>

  <rect x="158" y="308" width="140" height="32" rx="16" fill="#ffffffcc"/>
  <text x="228" y="329" font-size="15" text-anchor="middle" fill="#7a4fae" font-weight="600">排卵期</text>
  <text x="228" y="362" font-size="14" text-anchor="middle" fill="#4a4460">第 12 天 / 共 28 天</text>
  <rect x="162" y="392" width="132" height="26" rx="13" fill="#ffffff99"/>
  <text x="228" y="409" font-size="12" text-anchor="middle" fill="#5c5470">查看阶段详情  ›</text>

  <text x="64" y="528" font-size="16" fill="#4a4460" font-weight="600">今日状态概览</text>

  <!-- status cards row -->
  <g font-size="12" fill="#4a4460">
    <rect x="64" y="548" width="76" height="76" rx="14" fill="#ffffff55"/>
    <text x="102" y="578" font-size="18" text-anchor="middle">⚡</text>
    <text x="102" y="600" text-anchor="middle">精力</text>
    <text x="102" y="615" text-anchor="middle">较高</text>

    <rect x="151" y="548" width="76" height="76" rx="14" fill="#ffffff55"/>
    <text x="189" y="578" font-size="18" text-anchor="middle">☺</text>
    <text x="189" y="600" text-anchor="middle">情绪</text>
    <text x="189" y="615" text-anchor="middle">平稳</text>

    <rect x="238" y="548" width="76" height="76" rx="14" fill="#ffffff55"/>
    <text x="276" y="578" font-size="18" text-anchor="middle">⊘</text>
    <text x="276" y="600" text-anchor="middle">身体</text>
    <text x="276" y="615" text-anchor="middle">轻盈</text>

    <rect x="325" y="548" width="76" height="76" rx="14" fill="#ffffff55"/>
    <text x="363" y="578" font-size="18" text-anchor="middle">☾</text>
    <text x="363" y="600" text-anchor="middle">睡眠</text>
    <text x="363" y="615" text-anchor="middle">良好</text>
  </g>

  <!-- record period card -->
  <rect x="64" y="648" width="338" height="90" rx="18" fill="#ffffff66"/>
  <text x="84" y="678" font-size="14" fill="#4a4460" font-weight="600">记录经期</text>
  <text x="84" y="703" font-size="11" fill="#7a7390">开始日期</text>
  <text x="84" y="722" font-size="15" fill="#3a3550" font-weight="600">5月20日</text>
  <text x="222" y="703" font-size="11" fill="#7a7390">周期长度</text>
  <text x="222" y="722" font-size="15" fill="#3a3550" font-weight="600">28 天</text>
  <circle cx="362" cy="693" r="22" fill="url(#plusGrad)"/>
  <text x="362" y="700" font-size="22" text-anchor="middle" fill="white" font-weight="300">+</text>

  <text x="64" y="785" font-size="14" fill="#4a4460" font-weight="600">✓ 周期阶段总览</text>

  <g font-size="11" fill="#4a4460">
    <text x="102" y="824" font-size="16" text-anchor="middle">🥚</text>
    <text x="102" y="845" text-anchor="middle">经期</text>
    <text x="102" y="860" text-anchor="middle" fill="#8a8398">1-5天</text>

    <text x="189" y="824" font-size="16" text-anchor="middle">🌱</text>
    <text x="189" y="845" text-anchor="middle">卵泡期</text>
    <text x="189" y="860" text-anchor="middle" fill="#8a8398">6-13天</text>

    <text x="276" y="824" font-size="16" text-anchor="middle">♂</text>
    <text x="276" y="845" text-anchor="middle">排卵期</text>
    <text x="276" y="860" text-anchor="middle" fill="#8a8398">14-16天</text>

    <text x="363" y="824" font-size="16" text-anchor="middle">🍂</text>
    <text x="363" y="845" text-anchor="middle">黄体期</text>
    <text x="363" y="860" text-anchor="middle" fill="#8a8398">17-28天</text>
  </g>

  <!-- bottom nav -->
  <line x1="38" y1="888" x2="418" y2="888" stroke="#ffffff55" stroke-width="1"/>
  <g font-size="11" fill="#9a8fae">
    <text x="87" y="930" text-anchor="middle" font-size="16" fill="#7a4fae">⌂</text>
    <text x="87" y="950" text-anchor="middle" fill="#7a4fae">首页</text>
    <text x="184" y="930" text-anchor="middle" font-size="16">▤</text>
    <text x="184" y="950" text-anchor="middle">记录</text>
    <text x="276" y="930" text-anchor="middle" font-size="16">◔</text>
    <text x="276" y="950" text-anchor="middle">洞察</text>
    <text x="371" y="930" text-anchor="middle" font-size="16">☻</text>
    <text x="371" y="950" text-anchor="middle">我的</text>
  </g>

  <!-- ============ DESIGN KEYWORDS (top-right) ============ -->
  <text x="494" y="76" font-size="22" font-weight="700" fill="#3a3550">设计关键词</text>
  <g font-size="13" fill="#4a4460">
    <rect x="494" y="106" width="62" height="32" rx="16" fill="#ffffffaa"/>
    <text x="525" y="127" text-anchor="middle">轻盈</text>
    <rect x="568" y="106" width="78" height="32" rx="16" fill="#ffffffaa"/>
    <text x="607" y="127" text-anchor="middle">呼吸感</text>
    <rect x="658" y="106" width="78" height="32" rx="16" fill="#ffffffaa"/>
    <text x="697" y="127" text-anchor="middle">互动感</text>
    <rect x="748" y="106" width="62" height="32" rx="16" fill="#ffffffaa"/>
    <text x="779" y="127" text-anchor="middle">温柔</text>
    <rect x="822" y="106" width="78" height="32" rx="16" fill="#ffffffaa"/>
    <text x="861" y="127" text-anchor="middle">科技感</text>
  </g>

  <text x="494" y="200" font-size="16" fill="#4a4460">色彩：柔和渐变 + 通透玻璃感</text>
  <circle cx="518" cy="259" r="22" fill="#e9879f"/>
  <circle cx="580" cy="259" r="22" fill="#a98fe0"/>
  <circle cx="642" cy="259" r="22" fill="#8fd6c9"/>
  <circle cx="704" cy="259" r="22" fill="#f0c178"/>
  <circle cx="766" cy="259" r="22" fill="#ffffff" stroke="#e0e0e0" stroke-width="1.5"/>

  <!-- ============ STAGE DETAIL CARD (top-right) ============ -->
  <g filter="url(#softShadow)">
    <rect x="504" y="320" width="400" height="592" rx="28" fill="url(#cardGrad)"/>
  </g>
  <text x="540" y="365" font-size="20" fill="#4a4460">←</text>
  <text x="704" y="365" font-size="18" text-anchor="middle" font-weight="600" fill="#3a3550">阶段详情</text>
  <text x="868" y="364" font-size="16" fill="#4a4460">⇗</text>

  <circle cx="858" cy="455" r="38" fill="url(#bubbleGrad)"/>
  <circle cx="562" cy="440" r="22" fill="#ffffffaa"/>
  <text x="562" y="447" font-size="18" text-anchor="middle">♂</text>
  <text x="600" y="442" font-size="22" font-weight="700" fill="#3a3550">排卵期</text>
  <text x="600" y="470" font-size="13" fill="#5c5470">第 12 天 / 共 28 天</text>

  <text x="532" y="525" font-size="13" fill="#5c5470">这是你魅力四射、能量较高的阶段，身体状态</text>
  <text x="532" y="548" font-size="13" fill="#5c5470">和情绪通常较为稳定，是拓展社交、推进计划的</text>
  <text x="532" y="571" font-size="13" fill="#5c5470">好时机。</text>

  <rect x="532" y="608" width="340" height="244" rx="20" fill="#ffffff55"/>
  <g font-size="13" fill="#3a3550">
    <circle cx="556" cy="650" r="14" fill="#f6a6c1"/>
    <text x="556" y="655" font-size="11" text-anchor="middle">⚡</text>
    <text x="580" y="655" font-weight="600">精力水平</text>
    <text x="848" y="655" text-anchor="end" fill="#7a7390">较高 ›</text>
    <line x1="540" y1="678" x2="864" y2="678" stroke="#ffffff88"/>

    <circle cx="556" cy="708" r="14" fill="#a98fe0"/>
    <text x="556" y="713" font-size="11" text-anchor="middle">⚹</text>
    <text x="580" y="713" font-weight="600">适合运动</text>
    <text x="848" y="713" text-anchor="end" fill="#7a7390">有氧运动 / 舞蹈 / 户外活动</text>
    <line x1="540" y1="736" x2="864" y2="736" stroke="#ffffff88"/>

    <circle cx="556" cy="766" r="14" fill="#8fd6c9"/>
    <text x="556" y="771" font-size="11" text-anchor="middle">▣</text>
    <text x="580" y="771" font-weight="600">工作建议</text>
    <text x="848" y="771" text-anchor="end" fill="#7a7390">创意工作 / 团队协作 / 演讲展示</text>
    <line x1="540" y1="794" x2="864" y2="794" stroke="#ffffff88"/>

    <circle cx="556" cy="824" r="14" fill="#f0c178"/>
    <text x="556" y="829" font-size="11" text-anchor="middle">☺</text>
    <text x="580" y="829" font-weight="600">情绪倾向</text>
    <text x="848" y="829" text-anchor="end" fill="#7a7390">自信 / 积极 / 社交欲增强</text>
  </g>

  <rect x="532" y="874" width="340" height="38" rx="19" fill="url(#btnGrad)"/>
  <text x="702" y="898" font-size="13" text-anchor="middle" fill="white">记录今日状态 ›</text>

  <!-- ============ BOTTOM ROW: CALENDAR ============ -->
  <g filter="url(#softShadow)">
    <rect x="30" y="998" width="358" height="436" rx="26" fill="url(#cardGrad)"/>
  </g>
  <text x="60" y="1038" font-size="17" font-weight="700" fill="#3a3550">周期日历</text>
  <text x="362" y="1038" font-size="16" fill="#5c5470" text-anchor="end">›</text>

  <g font-size="12" fill="#7a7390" text-anchor="middle">
    <text x="62" y="1078">日</text><text x="111" y="1078">一</text><text x="160" y="1078">二</text>
    <text x="209" y="1078">三</text><text x="258" y="1078">四</text><text x="307" y="1078">五</text><text x="356" y="1078">六</text>
  </g>

  <!-- calendar rows -->
  <g font-size="13" font-family="inherit">
    <!-- row1 -->
    <text x="62" y="1119" text-anchor="middle" fill="#c5c1d8">28</text>
    <text x="111" y="1119" text-anchor="middle" fill="#c5c1d8">29</text>
    <text x="160" y="1119" text-anchor="middle" fill="#c5c1d8">30</text>
    <text x="209" y="1119" text-anchor="middle" fill="#4a4460">1</text>
    <text x="258" y="1119" text-anchor="middle" fill="#4a4460">2</text>
    <text x="307" y="1119" text-anchor="middle" fill="#4a4460">3</text>
    <text x="356" y="1119" text-anchor="middle" fill="#4a4460">4</text>
    <!-- row2 -->
    <text x="62" y="1162" text-anchor="middle" fill="#4a4460">5</text>
    <text x="111" y="1162" text-anchor="middle" fill="#4a4460">6</text>
    <text x="160" y="1162" text-anchor="middle" fill="#4a4460">7</text>
    <text x="209" y="1162" text-anchor="middle" fill="#4a4460">8</text>
    <text x="258" y="1162" text-anchor="middle" fill="#4a4460">9</text>
    <text x="307" y="1162" text-anchor="middle" fill="#4a4460">10</text>
    <text x="356" y="1162" text-anchor="middle" fill="#4a4460">11</text>
    <!-- row3 with highlights -->
    <circle cx="62" cy="1199" r="15" fill="none" stroke="#9ccbe0" stroke-width="1.5"/>
    <text x="62" y="1204" text-anchor="middle" fill="#3a3550">12</text>
    <text x="111" y="1204" text-anchor="middle" fill="#4a4460">13</text>
    <circle cx="160" cy="1199" r="15" fill="#a98fe0"/>
    <text x="160" y="1204" text-anchor="middle" fill="white">14</text>
    <circle cx="209" cy="1199" r="15" fill="#f0c178"/>
    <text x="209" y="1204" text-anchor="middle" fill="white">15</text>
    <circle cx="258" cy="1199" r="15" fill="#a98fe0"/>
    <text x="258" y="1204" text-anchor="middle" fill="white">16</text>
    <circle cx="307" cy="1199" r="15" fill="#f0c178"/>
    <text x="307" y="1204" text-anchor="middle" fill="white">17</text>
    <circle cx="356" cy="1199" r="15" fill="#f0c178"/>
    <text x="356" y="1204" text-anchor="middle" fill="white">18</text>
    <!-- row4 -->
    <text x="62" y="1247" text-anchor="middle" fill="#4a4460">19</text>
    <circle cx="111" cy="1242" r="15" fill="#e9879f"/>
    <text x="111" y="1247" text-anchor="middle" fill="white">20</text>
    <text x="160" y="1247" text-anchor="middle" fill="#4a4460">21</text>
    <text x="209" y="1247" text-anchor="middle" fill="#4a4460">22</text>
    <text x="258" y="1247" text-anchor="middle" fill="#4a4460">23</text>
    <text x="307" y="1247" text-anchor="middle" fill="#4a4460">24</text>
    <text x="356" y="1247" text-anchor="middle" fill="#4a4460">25</text>
    <!-- row5 -->
    <text x="62" y="1290" text-anchor="middle" fill="#4a4460">26</text>
    <text x="111" y="1290" text-anchor="middle" fill="#4a4460">27</text>
    <text x="160" y="1290" text-anchor="middle" fill="#4a4460">28</text>
    <text x="209" y="1290" text-anchor="middle" fill="#4a4460">29</text>
    <text x="258" y="1290" text-anchor="middle" fill="#4a4460">30</text>
    <text x="307" y="1290" text-anchor="middle" fill="#4a4460">31</text>
    <text x="356" y="1290" text-anchor="middle" fill="#c5c1d8">1</text>
  </g>

  <g font-size="10" fill="#5c5470">
    <circle cx="64" cy="1352" r="5" fill="#e9879f"/><text x="74" y="1356">经期</text>
    <circle cx="118" cy="1352" r="5" fill="#a98fe0"/><text x="128" y="1356">卵泡期</text>
    <circle cx="180" cy="1352" r="5" fill="#7a5fc4"/><text x="190" y="1356">排卵期</text>
    <circle cx="242" cy="1352" r="5" fill="#f0c178"/><text x="252" y="1356">黄体期</text>
    <circle cx="304" cy="1352" r="5" fill="none" stroke="#9a93ad"/><text x="314" y="1356">预测经期</text>
  </g>

  <!-- ============ RECORD STATUS CARD ============ -->
  <g filter="url(#softShadow)">
    <rect x="418" y="998" width="298" height="394" rx="26" fill="url(#cardGrad)"/>
  </g>
  <text x="444" y="1038" font-size="17" font-weight="700" fill="#3a3550">记录状态</text>
  <text x="690" y="1038" font-size="16" fill="#5c5470" text-anchor="end">›</text>

  <text x="444" y="1080" font-size="13" fill="#5c5470">今天感觉如何？</text>
  <g font-size="11" text-anchor="middle" fill="#5c5470">
    <circle cx="460" cy="1119" r="20" fill="#ffffff55"/><text x="460" y="1125" font-size="16">☻</text><text x="460" y="1148">开心</text>
    <circle cx="513" cy="1119" r="22" fill="url(#btnGrad)"/><text x="513" y="1125" font-size="17" fill="white">☻</text><text x="513" y="1148">平静</text>
    <circle cx="566" cy="1119" r="20" fill="#ffffff55"/><text x="566" y="1125" font-size="16">☹</text><text x="566" y="1148">疲惫</text>
    <circle cx="619" cy="1119" r="20" fill="#ffffff55"/><text x="619" y="1125" font-size="16">😟</text><text x="619" y="1148">焦虑</text>
    <circle cx="672" cy="1119" r="20" fill="#ffffff55"/><text x="672" y="1125" font-size="16">☹</text><text x="672" y="1148">低落</text>
  </g>

  <text x="444" y="1196" font-size="13" fill="#5c5470">精力水平</text>
  <text x="678" y="1196" font-size="13" fill="#3a3550" text-anchor="end">7</text>
  <rect x="444" y="1212" width="234" height="4" rx="2" fill="#ffffff88"/>
  <rect x="444" y="1212" width="160" height="4" rx="2" fill="url(#btnGrad)"/>
  <circle cx="604" cy="1214" r="8" fill="white" stroke="#a98fe0" stroke-width="2"/>

  <text x="444" y="1254" font-size="13" fill="#5c5470">身体不适</text>
  <text x="678" y="1254" font-size="13" fill="#3a3550" text-anchor="end">2</text>
  <rect x="444" y="1270" width="234" height="4" rx="2" fill="#ffffff88"/>
  <rect x="444" y="1270" width="46" height="4" rx="2" fill="url(#btnGrad)"/>
  <circle cx="490" cy="1272" r="8" fill="white" stroke="#a98fe0" stroke-width="2"/>

  <rect x="444" y="1330" width="234" height="40" rx="20" fill="url(#btnGrad)"/>
  <text x="561" y="1355" font-size="14" text-anchor="middle" fill="white">保存</text>

  <!-- ============ INSIGHTS CARD ============ -->
  <g filter="url(#softShadow)">
    <rect x="734" y="998" width="260" height="190" rx="26" fill="url(#cardGrad)"/>
  </g>
  <text x="758" y="1036" font-size="15" font-weight="700" fill="#3a3550">数据洞察</text>
  <text x="758" y="1068" font-size="11" fill="#8a8398">本周期时长</text>
  <text x="758" y="1096" font-size="22" font-weight="700" fill="#3a3550">28 天</text>
  <text x="968" y="1068" font-size="11" fill="#8a8398" text-anchor="end">周期趋势</text>
  <text x="968" y="1096" font-size="14" fill="#3a3550" text-anchor="end">稳定 ›</text>

  <polyline points="758,1135 800,1115 842,1140 884,1110 926,1130 968,1112" fill="none" stroke="#a98fe0" stroke-width="2.5" stroke-linecap="round" stroke-linejoin="round"/>
  <circle cx="758" cy="1135" r="3" fill="#a98fe0"/>
  <circle cx="800" cy="1115" r="3" fill="#a98fe0"/>
  <circle cx="842" cy="1140" r="3" fill="#a98fe0"/>
  <circle cx="884" cy="1110" r="3" fill="#a98fe0"/>
  <circle cx="926" cy="1130" r="3" fill="#a98fe0"/>
  <circle cx="968" cy="1112" r="3" fill="#a98fe0"/>
  <text x="758" y="1172" font-size="10" fill="#8a8398">3/25</text>
  <text x="846" y="1172" font-size="10" fill="#8a8398" text-anchor="middle">4/22</text>
  <text x="968" y="1172" font-size="10" fill="#8a8398" text-anchor="end">5/20</text>

  <rect x="734" y="1208" width="260" height="38" rx="19" fill="#ffffff55"/>
  <text x="864" y="1232" font-size="12" text-anchor="middle" fill="#4a4460">查看全部 ›</text>

  <!-- ============ TIPS CARD ============ -->
  <g filter="url(#softShadow)">
    <rect x="734" y="1264" width="260" height="128" rx="26" fill="url(#cardGrad)"/>
  </g>
  <text x="758" y="1300" font-size="15" font-weight="700" fill="#3a3550">温馨提示</text>
  <text x="758" y="1326" font-size="11" fill="#5c5470">记得多喝水，保持好心情，</text>
  <text x="758" y="1346" font-size="11" fill="#5c5470">你正在好好照顾自己呀 ♥</text>
  <ellipse cx="935" cy="1352" rx="28" ry="26" fill="#ffffff66"/>
  <circle cx="935" cy="1340" r="12" fill="#f6a6c1"/>
  <rect x="925" y="1348" width="20" height="22" rx="6" fill="#ffffffaa"/>

  <!-- ============ INTERACTION NOTES (footer) ============ -->
  <g filter="url(#softShadow)">
    <rect x="30" y="1434" width="964" height="106" rx="26" fill="url(#cardGrad)"/>
  </g>
  <text x="68" y="1480" font-size="17" font-weight="700" fill="#3a3550">交互细节</text>

  <g font-size="12" fill="#4a4460">
    <text x="225" y="1472" font-size="18" text-anchor="middle">☝</text>
    <text x="225" y="1500" text-anchor="middle">卡片可轻触</text>
    <text x="225" y="1518" text-anchor="middle">查看详情</text>

    <text x="478" y="1472" font-size="18" text-anchor="middle">⇄</text>
    <text x="478" y="1500" text-anchor="middle">滑动日历</text>
    <text x="478" y="1518" text-anchor="middle">切换月份</text>

    <circle cx="718" cy="1466" r="13" fill="none" stroke="#7a7390" stroke-width="1.4"/>
    <text x="718" y="1471" font-size="13" text-anchor="middle" fill="#4a4460">+</text>
    <text x="772" y="1500" text-anchor="middle">记录按钮</text>
    <text x="772" y="1518" text-anchor="middle">浮动互动</text>
  </g>

  <circle cx="952" cy="1505" r="26" fill="url(#bubbleGrad)"/>
</svg>
